<?xml version="1.0" encoding="utf-8"?>
<!-- Generator: Adobe Illustrator 16.0.0, SVG Export Plug-In . SVG Version: 6.00 Build 0)  -->
<svg version="1.2" baseProfile="tiny" xmlns="http://www.w3.org/2000/svg" xmlns:xlink="http://www.w3.org/1999/xlink" x="0px"
	 y="0px" width="117.5px" height="117.334px" viewBox="592 429 117.5 117.334" xml:space="preserve">
<g id="Repères_du_plan_de_travail">
</g>
<g id="Layer_1">
	<g>
		<g>
			<g>
				<path fill="#8DD32A" d="M651.195,469.825c-0.222,0.384-0.72,0.521-1.105,0.297l-2.763-1.594
					c-0.459-0.268-0.698-0.785-0.763-1.315c-0.262-2.101-1.452-4.06-3.429-5.2c-3.367-1.943-7.674-0.792-9.622,2.578
					c-1.936,3.367-0.781,7.674,2.583,9.617c1.974,1.137,4.265,1.191,6.216,0.37c0.491-0.207,1.059-0.266,1.519,0.002l2.764,1.595
					c0.381,0.222,0.518,0.72,0.296,1.107c0,0-3.535,6.14-5.796,10.06c-0.532,0.925-0.561,2.065-0.032,2.985l1.683,2.913
					c0.943-1.589,2.251-2.945,3.915-3.904c5.374-3.105,12.276-1.259,15.396,4.123c3.091,5.386,1.243,12.283-4.131,15.389
					c-1.656,0.956-3.487,1.417-5.336,1.441l1.63,2.823c0.922,1.591,2.942,2.203,4.535,1.286
					c8.746-5.048,28.742-16.593,39.623-22.875c3.268-1.887,3.333-6.6,0.064-8.489l-38.21-22.065
					c-1.617-0.932-3.686-0.379-4.625,1.238L651.195,469.825z"/>
				<path fill="#8DD32A" d="M614.815,483.693c0.45,0,0.812,0.366,0.812,0.813v3.184c0,0.535-0.334,0.998-0.76,1.319
					c-1.682,1.281-2.786,3.294-2.785,5.568c-0.001,3.887,3.147,7.036,7.04,7.041c3.882-0.005,7.033-3.154,7.033-7.041
					c0.001-2.276-1.099-4.288-2.785-5.568c-0.428-0.321-0.758-0.785-0.757-1.32l0-3.186c-0.003-0.45,0.365-0.811,0.809-0.811
					c0,0,7.085-0.006,11.612-0.011c1.066,0,2.071-0.545,2.602-1.466l1.681-2.91c-1.846-0.029-3.673-0.481-5.333-1.44
					c-5.38-3.098-7.229-10.001-4.134-15.392c3.119-5.373,10.019-7.22,15.396-4.118c1.657,0.957,2.97,2.311,3.919,3.901l1.631-2.825
					c0.919-1.593,0.443-3.649-1.152-4.565c-8.746-5.05-28.738-16.598-39.622-22.878c-3.27-1.888-7.387,0.414-7.387,4.189
					l-0.003,44.122c0,1.868,1.517,3.383,3.382,3.386L614.815,483.693z"/>
				<path fill="#8DD32A" d="M645.019,508.266c-0.225-0.39-0.09-0.889,0.3-1.108l2.757-1.597c0.468-0.267,1.03-0.208,1.523-0.002
					c1.951,0.822,4.243,0.771,6.215-0.369c3.368-1.945,4.522-6.251,2.578-9.625c-1.945-3.359-6.248-4.511-9.618-2.563
					c-1.97,1.137-3.161,3.094-3.427,5.189c-0.069,0.533-0.298,1.051-0.762,1.319l-2.762,1.593c-0.383,0.225-0.885,0.089-1.11-0.298
					c0,0-3.55-6.133-5.814-10.054c-0.532-0.921-1.507-1.521-2.57-1.521l-3.361,0.002c0.901,1.616,1.424,3.423,1.424,5.342
					c0,6.208-5.047,11.264-11.269,11.271c-6.209-0.009-11.263-5.065-11.262-11.271c0-1.913,0.521-3.722,1.418-5.344l-3.259,0.002
					c-1.843,0-3.382,1.442-3.382,3.286c0,10.099,0,33.179-0.001,45.749c-0.003,3.774,4.048,6.192,7.316,4.305l38.214-22.062
					c1.618-0.938,2.172-3.001,1.24-4.622L645.019,508.266z"/>
			</g>
		</g>
	</g>
</g>
</svg>
