<svg xmlns="http://www.w3.org/2000/svg" width="106.43" height="128" xmlns:v="https://vecta.io/nano"><path fill="#00ade6" d="M27.11 17.46v108.16c7.42 1.38 16.41 2.36 25.39 2.36 9.71 0 19.43-1 27.26-2.59V17.46H27.11z"/><path fill="#09c" d="M92.65 17.29l.22 104.12c8.08-3.25 13.55-7.46 13.55-12.1V17.16l-13.77.14z"/><path fill="#00a3d9" d="M78.94 17.21v108.37c4.92-1 14.19-4.25 14.31-4.3V17.21H78.94z"/><path fill="#00c0ff" d="M5.68 17.21L5.6 117.83c4.93 3.51 12.03 6.03 21.88 7.86V17.21H5.68z"/><path d="M6.02 118.08V21.92L0 18.54l.05 90.81c.1 3.37 2.66 6.82 5.98 8.73zm-6-99.75l.04-.6-.04.6z" fill="#4dd3ff"/><path fill="#00a3d9" d="M100.34 10.13c1.09 1.36 1.7 2.8 1.78 4.3.51 10.11-16.95 18.41-46.77 19.76l-2.11.08c-8.38 1.55-13.49 1.2-24.18.81 7.21 1.28 15.36 2.01 24 2.01 29.3 0 53.36-8.78 53.36-19.02 0-3.03-2.4-5.41-6.09-7.94z"/><path d="M.06 17.74l.04-.3-.04.3zM20.07 4.03C10.87 6.95 4.32 12 4.63 17.59 6.43 27.6 22.67 31.6 42.81 33.32l10.63.91c-.07.01-.13.02-.19.03l2.11-.08c29.81-1.36 47.28-9.65 46.77-19.76-.07-1.51-.69-2.95-1.78-4.3C91.56 4.12 73.69 0 53.06 0 40.59 0 29.13 1.51 20.07 4.03zM0 18.54v.04c0-.08.01-.17.01-.25 0 .07-.01.14-.01.21z" fill="#00c0ff"/><path fill="#4dd3ff" d="M28.13 31.58c-12.39-3.09-22.42-7.28-22.8-14.15-.31-5.59 5.54-10.47 14.74-13.4 2.84-.91 7.53-1.8 10.94-2.3C14.97 3.4 3.82 8.96.1 17.44c-.04.09-.03.2-.04.3a6.2 6.2 0 0 0-.04.6c0 .08-.01.17-.01.25.03 4.84 5.37 9.24 14.08 12.54 4.26 1.61 9.33 2.96 14.98 3.96a186.9 186.9 0 0 0 24 2.01c.07-.01-11.63-1.81-11.56-1.83-5.36-1.17-7.24-1.47-13.38-3.68z"/></svg>