<svg xmlns="http://www.w3.org/2000/svg" width="128" height="128" xmlns:v="https://vecta.io/nano"><path fill="#c9c9c9" d="M41.62 19.98L45.81 5.3l5.61-3.84h21.22c8.02 0 10.09 1.57 10.75 3.84l4.2 14.69"/><path fill="#9e9e9e" d="M46.55 19.98l4.2-14.69a5.3 5.3 0 0 1 5.09-3.84H50.9a5.3 5.3 0 0 0-5.09 3.84l-4.19 14.69"/><path fill="#c9c9c9" d="M88.92 126.67H39.67a15.9 15.9 0 0 1-15.87-14.64l-6.2-79.68H111l-6.2 79.68a15.9 15.9 0 0 1-15.88 14.64h0z"/><path fill="#9e9e9e" d="M110.99 32.35l-93.49-.87 6.3 80.55a15.9 15.9 0 0 0 15.87 14.64h6.61a15.9 15.9 0 0 1-15.87-14.64l-5.34-68.77a5.3 5.3 0 0 1 5.28-5.7h80.23l.41-5.21z"/><path fill="#c9c9c9" d="M115.88 32.26H12.71c-1.46 0-2.64-1.18-2.64-2.63v-.04c0-9.85 7.99-17.84 17.84-17.84h72.76c9.85 0 17.84 7.99 17.84 17.84v.04c0 1.45-1.18 2.63-2.64 2.63h0z"/><path fill="#9e9e9e" d="M18.02 29.58v.04c0 1.45 1.18 2.63 2.63 2.63h-7.93c-1.46 0-2.64-1.18-2.64-2.63v-.04c0-9.85 7.99-17.84 17.84-17.84h7.94c-9.85 0-17.83 7.99-17.83 17.84zm47.82 82.8a4.8 4.8 0 0 1-4.8-4.8V51.43a4.8 4.8 0 0 1 4.8-4.8 4.8 4.8 0 0 1 4.8 4.8v56.15a4.8 4.8 0 0 1-4.8 4.8h0zm23.08 0c-.13 0 0-.01-.13-.02a4.8 4.8 0 0 1-4.41-5.16l4.35-56.14a4.8 4.8 0 0 1 5.16-4.4 4.8 4.8 0 0 1 4.41 5.16l-4.35 56.15c-.2 2.51-2.55 4.42-5.03 4.42zm-47.45 0a4.8 4.8 0 0 1-4.78-4.42l-4.35-56.15a4.8 4.8 0 0 1 4.41-5.16 4.8 4.8 0 0 1 5.16 4.41l4.35 56.15a4.8 4.8 0 0 1-4.4 5.16c-.13 0-.26.01-.38.01z"/></svg>