<svg xmlns="http://www.w3.org/2000/svg" width="98.3" height="128" xmlns:v="https://vecta.io/nano"><path fill="#d8d8d8" d="M69.08 5.01H5.72v112.81 6.35H98.3V31.72z"/><path fill="#f4f4f4" d="M65.75.44H2.29v118.01h92.58V26.72z"/><path fill="#fff" d="M73.75 86.88c9.77-10.39 16.43-24.64 21.12-36.92V26.72L65.75.44H2.29v118.01h26.48c16.13-5.03 32.16-17.94 44.99-31.58z"/><path fill="#f2f2f2" d="M94.2 26.63l-.05 4.25H67.9l-1.74-1.45v-2.55"/><g fill="#787878"><path d="M15 17.01h50.05v2.29H15z"/><use href="#B"/><use href="#B" y="14.87"/><use href="#B" y="29.29"/><use href="#B" y="42.72"/><use href="#B" y="57.15"/><use href="#B" y="71.58"/></g><g fill="#a5a5a5"><path d="M94.87 120.74H0V.44h66.29L94.87 26.1v94.64h0zm-92.58-2.29h90.3v-91.1L65.21 2.73H2.29v115.73z"/><path d="M93.87 28.3H65.94l-1.22-1.77V2h2.28v24.01h26.86z"/></g><defs ><path id="B" d="M15 32.44h66.15v2.29H15z"/></defs></svg>