<svg xmlns="http://www.w3.org/2000/svg" baseProfile="basic" width="1486.29" height="1042.45" viewBox="16.04 10.19 1486.29 1042.45" xmlns:v="https://vecta.io/nano"><path fill="#c62828" d="M836.17 986.86l579.02 56.99c54.5 5.43 68.46-26.03 68.46-52.67l-.6-32.32L770.94 855c0 36.88 28.98 131.86 65.24 131.86h-.01 0z"/><path fill="#f44336" d="M829.91 961.19l94.91 8.02L1433 1016.5c27.33 0 49.32-20.95 49.32-46.82l-26.95-793.4c0-25.86-22.11-46.82-49.32-46.82L829.9 77.01c-37.77 0-68.44 29.09-68.44 64.9v754.37c0 35.81 30.56 64.9 68.45 64.9v.01z"/><path fill="#c62828" d="M705.34 986.53l-603.33 56.39c-56.79 5.37-71.33-25.75-71.33-52.12l.62-31.98 742.02-102.89c0 36.62-30.2 130.6-67.98 130.6z"/><path fill="#f44336" d="M692.27 949.74l-95.35 7.92-515.33 46.78c-27.67 0-49.93-20.68-49.93-46.19l27.29-782.73c0-25.52 22.39-46.19 49.94-46.19l583.37-51.74c38.24 0 69.3 28.71 69.3 64.02v744.22c0 35.2-30.94 63.91-69.3 63.91z"/><path fill="#424242" d="M925.89 774.5H599.46L589.3 957.02l100.94-7.28s22.93 60.73 72.32 60.73c49.39 0 71.2-54.48 71.2-54.48l101.87 8.44-9.74-189.92v-.01h0z"/><path fill="none" stroke="#616161" stroke-width="2.5" stroke-miterlimit="10" d="M934.63 959.97l-94.89-8.19m-250.36.03l101.86-6.05"/><path fill="#94c6d6" d="M1378.61 192.67H146.21l-6.2 723.61s117.59 14.73 274.72-1.22c136.86-13.84 201.3-49.27 247.03-40.08 54.92 11.07 64.89 44.85 66.66 50.6 4.98 15.94 14.84 28.35 33.99 28.35s27.68-6.64 33.55-26.35c1.77-5.76 12.18-41.41 67.1-52.48 45.73-9.19 110.17 26.24 247.04 40.08 157.12 15.94 274.72 1.22 274.72 1.22l-6.2-723.72-.01-.01z"/><path fill="#f5f5f5" d="M1334.32 91.26s-293.87-58.34-422.87-65.94c-121.36-7.13-146.27 58.11-148.71 65.94h-.44c-2.55-7.84-27.46-72.96-148.82-65.94-129 7.6-422.87 65.94-422.87 65.94l-13.07 752.98s349.9-77.4 434.61-67.35 150.26 79.04 150.26 79.04v-.12.12s65.66-68.99 150.37-79.04 434.61 67.35 434.61 67.35l-13.07-752.98h0z"/><path fill="#616161" d="M841.84 938.05c-12.4-1.11-23.81 6.53-27.79 18.38-5.98 18.05-19.93 41.63-51.49 41.63-31.89 0-45.95-23.7-52.04-41.74-3.99-11.63-15.17-19.16-27.46-18.16l-4.32.33.11 3.54c0 46.17 37.43 83.6 83.6 83.6s83.6-37.43 83.6-83.6c0-1.11-.11-3.65-.11-3.65l-4.11-.33z"/><g opacity=".5" fill="#757575"><path d="M291.46 236.66l-79.71 21.2-.13 39.48 79.83-21.4v-39.29zm314.43-62.63v38.71c68.85-.19 106.96 25.87 119.49 36.37l.13-43.18c-21.32-14.39-60.33-32.09-119.62-31.9zm-56.07 4.86c-55.94 8.56-133.83 26.45-202.3 43.57v39.48c67.95-16.92 145.98-35.01 202.3-43.96v-39.09zM412.24 346.75c-83.45 19.45-167.16 42.02-200.75 51.15v39.48c29.19-7.98 114.84-31.31 200.75-51.35v-39.29zm155.41-30.34c-27.26 3.31-62.01 9.92-99.35 17.7v39.29c38.11-8.17 73.77-14.78 101.41-18.28 92.75-11.48 141.71 22.76 155.41 34.43v-43.37c-25.32-16.93-76.09-39.87-157.47-29.76zM305.28 513.05l-93.79 24.89v39.49l93.79-24.9v-39.48zm410.31-26.26c-24.53-17.12-74.1-40.46-154.1-30.15-51.2 6.42-129.57 24.51-200.15 42.4v39.48c71.2-18.09 150.71-36.37 202.28-42.98 91.83-11.67 139.64 23.93 151.97 35.01v-43.76zm-.12 140.63c-23.62-17.12-72.09-41.04-150.53-30.73-7.96.97-16.52 2.33-25.58 3.89v39.1a706.2 706.2 0 0 1 27.66-4.28c91.06-11.87 137.56 25.28 148.58 35.79l-.12-43.77zm-232.3-16.34c-101.02 20.81-226.84 54.46-271.54 66.72v39.48c39.4-10.89 168.2-45.71 271.54-67.1v-39.09z"/></g><g opacity=".5" fill="#757575"><path d="M1020.98 236.46c101.82 21 234.88 58.41 271.03 68.52l-.12-38.75c-42.31-12.02-171.8-47.91-271.03-68.33v38.56h.12 0zm-53.49-48.1l-15.12-2.1c-77.11-9.93-125.31 12.41-149.54 29.01l.12 42.38c13.77-11.83 60.38-44.47 147.44-33.4l17.1 2.48v-38.37h0zm225.04 226.95l99.61 27.3v-38.75c-19.31-5.53-55.95-15.65-99.61-27.1v38.56zm-53.37-52.49c-66.53-16.6-138.35-33.02-186.06-39.13-77.47-9.93-125.8 12.6-150.03 29.2v42.57c13.03-11.45 59.64-45.05 147.94-33.78 48.08 6.1 121.01 22.9 188.03 39.7v-38.56h.12 0zm-10.33 134.76v38.56a5113.4 5113.4 0 0 1 163.31 43.71V541.1l-163.31-43.52zm-107.97 112.81c-24.72-4.96-47.6-9.16-66.53-11.45-78.83-10.12-127.52 13.36-151.26 30.16v42.95c11.07-10.12 57.92-46.77 149.29-35.12 19.43 2.48 43.04 6.68 68.5 12.02V610.4zm53.49 11.64v38.56c89.16 20.61 185.2 47.53 217.67 56.69v-38.75c-36.65-10.5-130.72-36.46-217.67-56.5zm-160.24-163c-55.09.57-91.37 18.13-110.92 31.88v42.76c10.33-9.16 45.62-35.69 110.92-36.65v-37.99zm53.38 4.19v38.37c30.62 4.77 68.62 12.79 107.85 21.76v-38.56c-39.35-9.16-77.23-16.99-107.85-21.57z"/></g><path opacity=".26" fill="#94c6d6" d="M647.34 69.97l-59.79 710.88c9.41-.22 17.72 0 24.36.77 84.6 9.41 150.37 74.85 150.37 74.85l-1.89-724.16c0 0-14.39-56.69-113.05-62.34z"/><path d="M1384.82 916.4l-37.43-71.54-13.07-753.61 44.29 101.42zM177.54 844.86l-37.53 71.42 6.07-725.04 44.53-99.98z" fill="#769fa5"/></svg>