<svg xmlns="http://www.w3.org/2000/svg" width="402.52" height="402.52" xmlns:v="https://vecta.io/nano"><ellipse cx="200.99" cy="197.78" rx="200.11" ry="191.78"/><path fill="#e5deda" d="M371.06 129.42c-2.25-4.52-1.94-4.44-6.17-1.63l-4.48 3.5c-10.96 7.26-17.94 19.49-25.95 38.31-7.58 17.82-11.54 33.86-13.29 53.85-2.4 27.36 1.34 54.1 11.03 79 1.17 2.99 2.28 5.63 2.47 5.87s.88 1.8 1.53 3.48 1.46 3.5 1.82 4.04l.64.98 2.15-2.09c17.58-17.13 35.06-48.17 41.49-73.71 9.17-36.41 4.84-79.35-11.24-111.6z"/><path d="M27.07 231.11c-2.93-19.77-3.17-40.12-.63-55.5a315.5 315.5 0 0 0 1.02-7.22c1.51-11.67 9.47-30.33 16-43.86 9.3-19.25 26.86-40.04 40.35-51.78l5.76-5.08a109.4 109.4 0 0 1 11.54-8.99 193.8 193.8 0 0 0 6.12-4.34c16.34-12.4 46.83-23.27 75.84-27.04 22.84-2.97 55.94 1.62 77.27 10.71l9.25 3.9c10.35 4.33 30.53 16.29 38.56 22.85 12.3 10.05 16.61 13.93 22.31 20.07 9.51 10.24 20.41 25.71 26.25 37.23 1.28 2.52 1.5 2.52 5.52-.23 4.44-3.03 4.67-2-3.22-14.06-38.3-58.55-103.02-91.63-170.39-87.07l-.03-.01c-64.66 4.37-122.2 42.63-154.61 102.8-12.45 23.11-19.42 53.16-18.82 81.17.27 12.86 2.17 29.16 3.55 30.56.52.53 2.78.63 7.8-1.06 3.98-1.34.83-1.22.56-3.05zm309.13 80.87c.65 1.68 1.46 3.5 1.82 4.04l.64.98 2.15-2.09c17.58-17.13 35.06-48.17 41.49-73.71 9.17-36.41 4.84-79.35-11.24-111.6-2.25-4.52-1.94-4.44-6.17-1.63l-.01-.01m-4.47 3.33c.04.05 19.83 84.68 17.34 89.03m-47.42 94.65l-1.78 1.73-4.55 4.01-7.42 6.21c-16.37 13.87-43.98 27.36-68.06 33.26-23.18 5.68-49.77 7.76-67.95 5.33l-8.92-1.16c-29.75-3.75-59.95-16.79-83.12-35.89-9.56-7.88-20.06-14.13-23.46-18.72l-8.64-11.57c-5.89-7.87-6.8-9.35-14.75-23.96a93.1 93.1 0 0 1-4.01-8.39c-.8-2.04-2.15-5.2-3-7.03-1.67-3.48-2.92-7.15-3.71-10.93-.58-2.9-.65-2.93-4.77-2.29h-.01c-9.14 1.43-4.98 1.25-2.91 7.5 19.08 57.49 74.17 103.27 140.18 116.5 57.22 11.47 119.86-5.2 165.95-44.15 2.52-2.13 4.58-4.05 4.58-4.25 0-.55-.69-1.82-2.26-4.14l-1.39-2.06z" fill="#fff"/><path d="M375.41 136.55c-4.46-11.31-5.62-12.85-8.54-11.27h-.01c-10.37 5.59-21.79 19.45-30.04 36.44a178.6 178.6 0 0 0-1.95 150.44c3.3 7.3 3.24 7.28 7.79 2.44 45.82-48.74 57.87-114.27 32.75-178.05zM341.96 314.3c-3.58 3.82-3.56 3.83-6.18-1.95-10.05-22.2-15.95-48.92-15.93-72.21.02-37.28 12.07-75.89 31.11-99.68 6.85-8.56 17.24-16.74 18.72-14.74h-.01c2.01 2.71 8.5 19.48 11.25 29.06 16.43 57.22 2.18 115.54-38.96 159.52zm-26.38-74.64c0-2.19-.16-3.23-.55-3.55-.65-.54-10.13-1.94-22.75-3.35-10.34-1.16-9.75-1.26-12.78 2.11-7.36 8.18-27.73 29.15-30.39 31.3-1.66 1.34-2.14 1.52-3.96 1.52-2.83 0-1.75.8-39.03-29.11-14.59-11.71-14.33-11.55-17.95-11.39l-6.44.18-.03-.02c-22.38.47-48.39 1.81-63.61 3.27-11.11 1.07-18.28 1.91-19.99 2.36-1.57.41-.32-1.41-26.47 38.2-9.18 13.9-8.34 12.78-9.21 12.26-1.52-.91-15.01-22.36-22.35-35.54-3.08-5.52-1.99-5.31-14.23-2.82-6.18 1.25-6.17 1.22-3.7 8.55 20.28 60.21 79.55 107.43 148.65 118.4 53.78 8.55 114.61-8.45 156.88-43.82 8.4-7.03 8.16-6.62 6.06-10.39-10.37-18.55-18.15-52.05-18.15-78.16zm13.56 86.4c-37.63 31.5-85.58 48.45-133.75 47.27-12.05-.3-21.46-1.34-33.14-3.66-56.19-11.2-107.01-48.41-130.77-95.73-3.97-7.92-10.14-23.76-10.14-26.06 0-1.18 6.51-2.89 13.29-3.49l2.16-.19 1.8 3.07 3.77 6.64a133.7 133.7 0 0 0 3.67 6.24c.93 1.46 2.99 4.87 4.57 7.55 3.54 6.02 10.15 15.93 11.3 16.96 1.44 1.29.83 2.1 15.86-21.06 15.1-23.26 19.44-29.47 20.86-29.83 2.59-.67 23.95-2.87 34.15-3.51 21.34-1.34 45.11-2.28 55.42-2.2l3.51.03 7.42 5.84-.02-.01 15.61 12.51 24.59 19.56c4.94 3.81 7.49 3.58 12.54-1.13a1521.7 1521.7 0 0 0 27.84-28.98c3.35-3.65 2.35-3.46 11.99-2.34 12.33 1.43 20.45 2.58 22.46 3.17.61.18.68.78.68 5.32 0 10.97 2.43 29.96 5.68 44.36 2.54 11.24 7.5 23.76 12.64 31.86 1.83 2.88 1.78 2.98-3.99 7.81zm-52.03-105.2a759 759 0 0 1 34.2 4.12c5.07.87 4.72 1.31 5.6-7.04 4.19-39.8 23.02-78.86 45.8-95.02 5.51-3.91 5.6-2.84-1.1-13.27C323.28 49.98 257 14.81 191.44 19.36v.01C84.99 26.73 3.72 118.9 14.83 219.67c.92 8.4 2.22 15.6 2.98 16.54l.68.83 5.41-1.28c78.6-18.6 162.2-23.52 253.21-14.9zM17.5 232.91C-3.93 118.97 96.92 10.83 215.64 20.46v.01c57.28 4.65 111.53 37.28 143.03 86.05l4.29 6.63a61.3 61.3 0 0 1 2.53 4.28l.88 1.74-1.3 1.09c-.72.6-2.61 1.92-4.21 2.94-21.22 13.53-41.75 57.91-45.15 97.59-.33 3.87-.31 3.85-4.6 3.22-14.15-1.97-28.36-3.54-42.6-4.71l-9.17-.8c-40.7-4.05-114.21-2.87-157.66 2.53l-20.39 2.73a688.6 688.6 0 0 0-37.31 6.48l-7.28 1.51a435.5 435.5 0 0 0-9.52 2.38c-9.18 2.38-9 2.4-9.68-1.22zm226.76 20.35c-.74 0-12.78-8.9-19.56-14.47l-7.96-6.34c-4.79-3.7-4.69-3.6-4.37-4.13s2.99-.54 12.9-.04c23.74 1.19 39.83 2.41 40.5 3.08s-20.19 21.9-21.51 21.9z" fill="#938a83"/><path d="M70.39 236.2v-.01c-26.18 4.52-24.26 4.11-24.26 5.18 0 1.55 11.27 19.83 14.08 22.85 2 2.15 2 2.15 6.03-3.87a359.4 359.4 0 0 1 6.59-9.44c6.57-9.05 11.1-15.83 10.85-16.24-.39-.63-1.75-.46-13.29 1.53zm197.99-5.79c-1.19-1.19-57.59-4.58-58.64-3.52h-.01c-.57.57-.22.95 3.69 3.88l8.48 6.74c7.15 5.95 21.98 16.98 22.82 16.98 1.45 0 24.39-23.36 23.66-24.09z" fill="#09c6c1"/><radialGradient id="A" cx="-119.2" cy="671.14" r="265.52" gradientTransform="matrix(1 0 0 -1 287.7002 813.1997)" gradientUnits="userSpaceOnUse"><stop offset=".04" stop-color="#fff"/><stop offset=".16" stop-color="#f8f7f7"/><stop offset=".34" stop-color="#e4e2e1"/><stop offset=".56" stop-color="#c4c0bd"/><stop offset=".81" stop-color="#98918c"/><stop offset="1" stop-color="#736a63"/></radialGradient><path fill="url(#A)" d="M367.71 138.5c-2.57-3.97-3.08-4.17-5.92-2.24l.01.02c-4.19 2.86-9.94 10.64-14.45 19.55-3.55 7.03-11.91 28.22-13.37 33.06-4.13 13.67-3.79 22.16-6.48 33.33-.31 1.29-.04 30.38 0 31.84.33 13.32 2.41 31.02 10.35 46.83 2.72 5.43 3.55 5.67 7.21 2.16 11.34-10.89 25.5-36.93 32.38-59.56 10.37-34.11 6.06-80.59-9.73-105zM356.4 285.79c-.01.02-.03.05-.05.07.02-.02.03-.05.05-.07zm-19.41 10.54l.61 1.37 1.71 3.82c-.73-1.42-1.54-3.25-2.31-5.19zm4.36 7.97c-.23 0-.55-.31-.92-.85.54.64 1.09.7 1.85.19-.45.42-.78.66-.92.66zm12.6-14.82l1.17-1.73-.36.55-.81 1.18zm22.31-46.1a123.8 123.8 0 0 1-2.48 7.34c3.24-9.25 5.52-18.9 6.83-28.67-.9 7.39-2.34 14.58-4.36 21.32z"/><radialGradient id="B" cx="-119.2" cy="671.14" r="265.53" gradientTransform="matrix(1 0 0 -1 287.7002 813.1997)" gradientUnits="userSpaceOnUse"><stop offset=".04" stop-color="#fff"/><stop offset=".16" stop-color="#f8f7f7"/><stop offset=".34" stop-color="#e4e2e1"/><stop offset=".56" stop-color="#c4c0bd"/><stop offset=".81" stop-color="#98918c"/><stop offset="1" stop-color="#736a63"/></radialGradient><path fill="url(#B)" d="M365.5 117.44l-2.53-4.28-4.29-6.63c-37.03-57.34-103.24-90.76-170.74-86.21a187.1 187.1 0 0 0-87.81 29.75c-63.94 42.57-95.76 113-82.62 182.85.68 3.62.5 3.6 9.68 1.22l9.52-2.38 7.28-1.51c10.45-2.17 27.75-5.17 37.31-6.48l20.39-2.73c43.44-5.4 116.96-6.58 157.66-2.53l9.17.8a766.8 766.8 0 0 1 42.6 4.71c4.29.63 4.27.64 4.6-3.22 3.39-39.68 23.92-84.07 45.15-97.59 1.6-1.02 3.5-2.34 4.21-2.94l1.3-1.09-.88-1.74zm-3.29 4.4c-4.02 2.74-4.24 2.75-5.52.23-5.84-11.52-16.74-26.98-26.25-37.23-5.69-6.13-10-10.01-22.31-20.07-8.03-6.56-28.21-18.52-38.56-22.85l-9.25-3.9c-21.33-9.09-54.43-13.68-77.27-10.71-19.45 2.53-31.81 5.28-48.3 12-12.15 4.95-20.42 9.5-27.54 15.04-1.98 1.54-4.05 2.93-6.12 4.34a109.4 109.4 0 0 0-11.54 8.99l-5.76 5.08c-13.49 11.73-31.04 32.52-40.35 51.78-6.53 13.53-14.49 32.19-16 43.86l-1.02 7.22c-2.53 15.38-2.3 35.73.63 55.5.27 1.83 1.85 2.11-.56 3.05-4.93 1.92-7.28 1.59-7.8 1.06-1.38-1.4-3.28-17.7-3.55-30.56-.59-28.01 6.37-58.06 18.82-81.17C71.13 54.54 140.96 15 215.3 20.85h.01c60.99 4.79 117.09 40.71 149.14 95.46 1.58 2.7 1.46 3-2.24 5.53z"/><path fill="url(#A)" d="M333.07 318.15c-5.14-8.1-10.11-20.62-12.64-31.86-3.25-14.39-5.68-33.39-5.68-44.36 0-4.54-.08-5.14-.68-5.32-2.01-.59-10.13-1.74-22.46-3.17-9.64-1.12-8.64-1.31-11.99 2.34-9.15 9.78-18.44 19.44-27.84 28.98-5.05 4.72-7.59 4.95-12.54 1.13l-24.59-19.56-15.61-12.51-7.42-5.84-3.51-.03a361.8 361.8 0 0 0-8.59.08l.02.01c-11.48.24-31.02 1.13-46.83 2.12-10.19.64-31.56 2.84-34.15 3.51-1.42.37-5.76 6.57-20.86 29.83-15.03 23.15-14.42 22.34-15.86 21.06-1.15-1.03-7.75-10.94-11.3-16.96-1.58-2.68-3.64-6.08-4.57-7.55s-2.59-4.28-3.67-6.24a352.8 352.8 0 0 0-3.77-6.64l-1.8-3.07-2.16.19a82.7 82.7 0 0 0-11.24 2.06c-2.57.73-2.57.75-.32 7.37 11.06 32.6 33.22 61.47 63.74 83.05 32.63 23.07 69.66 35.51 108.58 36.46 48.17 1.18 96.12-15.77 133.75-47.27 5.76-4.82 5.81-4.92 3.99-7.81zm-58.98 25.13c-.57.69-1.52.64-1.25-.06.12-.31.54-.53.94-.5.55.04.63.18.31.56zm55.19-17.94c-46.09 38.95-108.73 55.62-165.95 44.15-66.01-13.23-121.09-59-140.18-116.5-1.91-5.74-1.88-5.62 1.71-6.52 6.14-1.53 5.33-1.86 5.97 1.31h.01a48.1 48.1 0 0 0 3.71 10.93c.85 1.83 2.2 4.99 3 7.03 1.2 2.86 2.54 5.66 4.01 8.39 7.95 14.61 8.87 16.1 14.75 23.96l8.64 11.57c3.4 4.59 13.9 10.83 23.46 18.72 23.17 19.09 53.37 32.13 83.12 35.89l8.92 1.16c43.9 5.89 103.46-11.01 136.01-38.59l7.42-6.21a91.9 91.9 0 0 0 4.55-4.01l1.78-1.73 1.39 2.06c1.57 2.32 2.26 3.59 2.26 4.14 0 .21-2.06 2.12-4.58 4.25z"/><path fill="#140800" d="M220.68 394.45c-17.18 4.54-10.91 4.54-28.16.94-16.9-3.52-56.87-16.28-56.87-16.28l148.24-6.72"/></svg>