<?xml version="1.0" encoding="utf-8"?>
<!-- Generator: Adobe Illustrator 16.0.0, SVG Export Plug-In . SVG Version: 6.00 Build 0)  -->
<!DOCTYPE svg PUBLIC "-//W3C//DTD SVG 1.1 Tiny//EN" "http://www.w3.org/Graphics/SVG/1.1/DTD/svg11-tiny.dtd">
<svg version="1.1" baseProfile="tiny" id="Calque_1" xmlns:v="https://vecta.io/nano"
	 xmlns="http://www.w3.org/2000/svg" xmlns:xlink="http://www.w3.org/1999/xlink" x="0px" y="0px" width="128px" height="109.25px"
	 viewBox="0 2.5 128 109.25" xml:space="preserve">
<path fill="#D9D9D9" d="M18.934,99.396L1.378,32.06c-0.558-2.138,0.724-4.322,2.861-4.88c2.134-0.557,4.322,0.724,4.88,2.86
	L21.56,77.76l20.89-38.54l13.232,27.01L72.77,21.663l16.467,26.854l22.188-43.34l15.073,70.415c0.462,2.16-0.914,4.285-3.074,4.748
	c-2.157,0.467-4.286-0.912-4.748-3.074l-10.37-48.439l-18.439,36.02L74.43,39.678L56.58,86.243l-14.488-29.57L18.934,99.396z"/>
<path fill="#FF7070" d="M84.5,74.5h28v34h-28V74.5z"/>
<path fill="#FF8181" d="M112.48,74.5H84.609l6.883-10h27.01L112.48,74.5z"/>
<path fill="#D65E5E" d="M112.5,108.529V74.42l6-9.88v33.989L112.5,108.529z"/>
<path fill="#FFC000" d="M47.5,56.5h27v52h-27V56.5z"/>
<path fill="#FFCC30" d="M74.52,56.5H47.5l6.813-11h26.216L74.52,56.5z"/>
<path fill="#D9A300" d="M74.5,108.529v-52l6-11v53.001L74.5,108.529z"/>
<path fill="#00C0FF" d="M9.5,24.5h27v84h-27V24.5z"/>
<path fill="#33CCFF" d="M36.53,24.5H9.68l6.883-10h27L36.53,24.5z"/>
<path fill="#00A3D9" d="M36.5,108.214V24.5l7-9.937v83.97L36.5,108.214z"/>
</svg>
