<svg xmlns="http://www.w3.org/2000/svg" baseProfile="tiny" width="123.5" height="106.5" xmlns:v="https://vecta.io/nano">
<path fill="#D8AE00" d="M78.971,63.7c-4.549-0.95-8.25-2.9-11.25-5.9c-2.9-2.899-6.15-8.7-6.699-11.899 		c-0.301-1.551-4.351-18.05,2.25-18.45c10.85-0.7,20.5-4.75,28.449-12.05c3.15-2.9,4-2.7,11.4,2.75l5.59,4.73l0.711,2.27 		c0,1.95,0.148,2.35,0.949,2.35c0.5,0,1.5,0.55,2.25,1.25c1.25,1.15,1.301,1.4,1.301,6.4c0,4.5-0.15,5.399-1.051,6.55 		c-0.551,0.7-1.449,1.3-2,1.3c-0.6,0-1.051,0.45-1.25,1.4c-0.65,3-1.85,6.449-3,8.399c-2.572,3.687-5.895,6.788-9.75,9.101 		C91.82,64.35,84.971,65,78.971,63.7z M57.391,70.5c0.15-0.65,3.101-0.75,22.8-0.9c24.699-0.1,26.1,0,31.25,2.75 		c3.645,2.277,6.613,5.488,8.6,9.301c1.85,3.949,2.25,7.05,2.25,16.399v8.45h-24.75c-21.65,0-22.682,0-22.682,0 		S57.292,71,57.391,70.5z"/><path fill="#E6B800" d="M64.459,29.034c-0.75-0.7-35.451-1.95-45.851-1.4l-4.85,0.3v-2.75c0-9.7,5-17.8,13.45-21.85 		c3.7-1.75,4.13-2.19,10.63-2.34c5.9-0.15,6.92,0.34,9.62,1.34c5.85,2.1,10.899,6.3,13.2,11l1,1.95"/><path fill="#A58500" d="M109.589,26l-1.811-1.4l-6.301-4.65l-6.299-4.65l-1.801,1.75c-7.35,7.05-17.801,11.6-28.199,12.15 l-4.851,0.3v-2.21l2.601-3.09c0-3.5-1.081-7.71-1.081-7.71s0.241-0.38,0.411-0.68c2.299-4.07,6.76-9.03,11.439-11.28 	c3.699-1.75,3.811-2.41,10.311-2.56c5.898-0.15,7.318,0.92,10.02,1.92c5.85,2.1,10.9,6.3,13.199,11l1,1.95"/><path fill="#FFD700" d="M1.333,97c0-8.3,0.15-9.95,1.05-12.65c1.224-4.147,3.792-7.771,7.3-10.3c5.75-4.3,5.55-4.25,28.4-4.45 	c19.5-0.149,20.05-0.1,23,0.95C66.813,72.365,71.5,76.527,73.984,82l1.6,3.2l0.15,10.649l0.148,10.65h-37.25h-37.3V97z M32.383,63.7
c-4.55-0.95-8.25-2.9-11.25-5.9c-2.9-2.899-6.15-8.7-6.7-11.899c-0.3-1.551-0.7-2.301-1.6-2.75c-2.6-1.301-3-2.351-3-7.9
c0-7.1,0.25-7.4,6.85-7.8c10.85-0.7,20.5-4.75,28.45-12.05c3.15-2.9,4-2.7,11.4,2.75l6.25,4.6l0.051,2.4
c0,1.95,0.15,2.35,0.949,2.35c0.5,0,1.5,0.55,2.25,1.25c1.25,1.15,1.301,1.4,1.301,6.4c0,4.5-0.15,5.399-1.051,6.55
c-0.549,0.7-1.449,1.3-2,1.3c-0.6,0-1.049,0.45-1.25,1.4c-0.65,3-1.85,6.449-3,8.399c-2.573,3.687-5.896,6.788-9.75,9.101
C45.234,64.35,38.383,65,32.383,63.7z"/><path d="M71.383,40.3c-0.898-0.95-1.049-1.75-1.049-5.149c0-3.95,0.049-4.101,1.449-5.101c2.451-1.75,4.951-1.2,6.25,1.35
c1.1,2.15,0.701,7.4-0.65,8.75C75.883,41.65,72.734,41.75,71.383,40.3z M92.283,40.1c-0.75-1-0.949-2.05-0.949-5.149
c0-3.7,0.049-3.95,1.449-4.9c1.549-1.406,3.932-1.34,5.4,0.15c1.301,1.1,1.35,1.45,1.4,5.2c0,4.899-0.551,5.699-4,5.85
C93.684,41.3,93.133,41.15,92.283,40.1L92.283,40.1z"/><path d="M25.032,40.3c-0.898-0.95-1.049-1.75-1.049-5.149c0-3.95,0.049-4.101,1.449-5.101c2.451-1.75,4.951-1.2,6.25,1.351
c1.1,2.149,0.701,7.399-0.65,8.75C29.532,41.65,26.384,41.75,25.032,40.3z M45.933,40.1c-0.75-1-0.949-2.05-0.949-5.149
c0-3.7,0.049-3.95,1.449-4.9c1.549-1.406,3.932-1.341,5.4,0.15c1.301,1.1,1.35,1.45,1.4,5.2c0,4.899-0.551,5.699-4,5.85
C47.333,41.3,46.782,41.15,45.933,40.1L45.933,40.1z"/></svg>
